<svg width="14" height="15" viewBox="0 0 14 15" fill="none" xmlns="http://www.w3.org/2000/svg">
<path d="M13 13.5L9.96252 10.4625M9.96252 10.4625C10.4501 9.97496 10.8368 9.39618 11.1006 8.75918C11.3645 8.12219 11.5003 7.43947 11.5003 6.74999C11.5003 6.06052 11.3645 5.37779 11.1006 4.7408C10.8368 4.10381 10.4501 3.52503 9.96252 3.03749C9.47499 2.54996 8.89621 2.16323 8.25921 1.89938C7.62222 1.63553 6.9395 1.49973 6.25002 1.49973C5.56055 1.49973 4.87782 1.63553 4.24083 1.89938C3.60384 2.16323 3.02506 2.54996 2.53752 3.03749C1.55291 4.02211 0.999756 5.35754 0.999756 6.74999C0.999756 8.14245 1.55291 9.47788 2.53752 10.4625C3.52214 11.4471 4.85757 12.0003 6.25002 12.0003C7.64248 12.0003 8.97791 11.4471 9.96252 10.4625Z" stroke="#F8F8F8" stroke-width="2" stroke-linecap="round" stroke-linejoin="round"/>
</svg>
